# xmcd CD database file
#
# Track frame offsets:
#	182
#	20717
#	37405
#	62585
#	88715
#	116965
#	140450
#	180735
#	193032
#	215317
#	233932
#	253252
#	270070
#	288135
#	312835
#
# Disc length: 4410 seconds
#
# Revision: 0
# Processed by: cddbd v1.4PL0 Copyright (c) Steve Scherf et al.
# Submitted via: NeoAudio 9.9.9
#
DISCID=df11380f
DTITLE=Various Artist - This is Blues
DYEAR=1900
DGENRE=Blues
TTITLE0=Buddy Guy - Suits Me To a T
TTITLE1=Lousiana Red - Valerie
TTITLE2=Carrey Bell - It's So easy To Love You
TTITLE3=Champion Jack Dupree - I Used To Love You
TTITLE4=Byther Smith - Blues On The Moon
TTITLE5=Mojo Buford - Picking Rags
TTITLE6=Phil Guy - Ice Around My Heart
TTITLE7=Fernest Arceneaux and The Thunders - Bye Bye Lucille
TTITLE8=Eddie C Campbell - Tears Are For Losers
TTITLE9=Charlie Sayles - Eli
TTITLE10=Meats's Too High
TTITLE11=Meet Me In The Bottom
TTITLE12=Norman Beaker Band - New Home
TTITLE13=Larry Johnson - Rail Road Man
TTITLE14=Cloudy Weather
EXTD=
EXTT0=
EXTT1=
EXTT2=
EXTT3=
EXTT4=
EXTT5=
EXTT6=
EXTT7=
EXTT8=
EXTT9=
EXTT10=
EXTT11=
EXTT12=
EXTT13=
EXTT14=
PLAYORDER=
